# xmcd CD database file
#
# Track frame offsets:
#	150
#	18013
#	50161
#	68663
#	91009
#	108122
#	118427
#	139063
#	158565
#	183471
#	197642
#
# Disc length: 2732 seconds
#
# Revision: 0
# Processed by: cddbd v1.5.1PL2 Copyright (c) Steve Scherf et al.
# Submitted via: CDex 1.51
#
DISCID=8c0aaa0b
DTITLE=DZ - is as does
DYEAR=2006
DGENRE=Blues
TTITLE0=Quarantino (Chill in)
TTITLE1=The Way of Things
TTITLE2=Wordless
TTITLE3=World War Blues
TTITLE4=The Twist
TTITLE5=Road Player
TTITLE6=Bossa Booga Nova
TTITLE7=Rock Bubble
TTITLE8=Re and the Rest (In Peace)
TTITLE9=The Witch Doctor
TTITLE10=Quarantino (Chill out)
EXTD=YEAR: 2006
EXTT0=
EXTT1=
EXTT2=
EXTT3=
EXTT4=
EXTT5=
EXTT6=
EXTT7=
EXTT8=
EXTT9=
EXTT10=
PLAYORDER=
